# xmcd
#
# Track frame offsets:
#	150
#	13326
#	27490
#	41769
#	54540
#	70590
#	85343
#	101276
#	116550
#	131090
#	147753
#	162812
#	178069
#
# Disc length: 2563 seconds
#
# Revision: 1
# Processed by: cddbd v1.5.2PL0 Copyright (c) Steve Scherf et al.
# Submitted via: audiograbber 1.83.01
#
DISCID=b00a010d
DTITLE=Jake Owen - Greatest Hits
DYEAR=2017
DGENRE=Country
TTITLE0=Yee Haw
TTITLE1=Don't Think I Can't Love You
TTITLE2=Eight Second Ride
TTITLE3=Barefoot Blue Jean Night
TTITLE4=Alone With You
TTITLE5=The One That Got Away
TTITLE6=Anywhere With You
TTITLE7=Days of Gold
TTITLE8=Beachin'
TTITLE9=What We Ain't Got
TTITLE10=American Country Love Song
TTITLE11=Subliminal Love
TTITLE12=Long As You're In It
EXTD=
EXTT0=
EXTT1=
EXTT2=
EXTT3=
EXTT4=
EXTT5=
EXTT6=
EXTT7=
EXTT8=
EXTT9=
EXTT10=
EXTT11=
EXTT12=
PLAYORDER=
